<svg width="135" height="27" viewBox="0 0 135 27" fill="none" xmlns="http://www.w3.org/2000/svg">
<path d="M41.6044 23.4585C45.1946 23.4585 47.7148 21.6167 47.7148 18.3345C47.7148 15.4064 45.8128 14.2022 42.4366 13.3285C39.5597 12.5965 38.8464 12.2423 38.8464 11.1561C38.8464 10.306 39.5835 9.66843 40.9863 9.66843C42.389 9.66843 43.8394 10.2824 45.3135 11.2977L47.2156 8.5586C45.5275 7.21265 43.459 6.45703 41.0338 6.45703C37.6338 6.45703 35.2087 8.44054 35.2087 11.4394C35.2087 14.7689 37.3723 15.6898 40.7247 16.5399C43.5065 17.2483 44.0771 17.7205 44.0771 18.6414C44.0771 19.6568 43.1736 20.2471 41.6758 20.2471C39.7737 20.2471 38.2045 19.4679 36.7066 18.24L34.543 20.8139C36.5401 22.5848 39.0842 23.4585 41.6044 23.4585Z" fill="#00315C"/>
<path d="M50.512 27.0005H54.126V21.5695C54.9819 22.5848 56.1707 23.4585 58.0966 23.4585C61.1161 23.4585 63.8979 21.1444 63.8979 16.9177C63.8979 12.6437 61.0686 10.3296 58.0966 10.3296C56.2183 10.3296 55.0057 11.2033 54.126 12.3839V10.5657H50.512V27.0005ZM57.1693 20.4124C55.4812 20.4124 54.0784 19.0192 54.0784 16.9177C54.0784 14.7689 55.4812 13.3757 57.1693 13.3757C58.8574 13.3757 60.284 14.7689 60.284 16.8704C60.284 19.0429 58.8574 20.4124 57.1693 20.4124Z" fill="#00315C"/>
<path d="M66.5562 23.2224H70.1701V18.547C70.1701 15.5245 71.6442 14.0841 74.0456 14.0841H74.2358V10.3296C72.096 10.2351 70.9072 11.3686 70.1701 13.116V10.5657H66.5562V23.2224Z" fill="#00315C"/>
<path d="M79.504 23.4585C81.2635 23.4585 82.476 22.821 83.3557 21.8528V23.2224H86.8508V15.8787C86.8508 14.1785 86.4228 12.7854 85.4718 11.8408C84.5683 10.9435 83.1418 10.424 81.1684 10.424C79.0047 10.424 77.6257 10.8255 76.223 11.4394L77.1264 14.1785C78.2915 13.7535 79.2663 13.4938 80.6453 13.4938C82.4523 13.4938 83.3795 14.3202 83.3795 15.8079V16.0204C82.476 15.7134 81.5488 15.5009 80.2649 15.5009C77.2453 15.5009 75.1293 16.776 75.1293 19.5387C75.1293 22.089 77.1027 23.4585 79.504 23.4585ZM80.5977 20.9791C79.4327 20.9791 78.6243 20.4124 78.6243 19.4443C78.6243 18.2636 79.5754 17.6497 81.1208 17.6497C82.0005 17.6497 82.8089 17.8386 83.4271 18.1219V18.7595C83.4271 20.0582 82.2858 20.9791 80.5977 20.9791Z" fill="#00315C"/>
<path d="M93.3717 23.3169H96.6528L101.67 10.5657H97.9129L95.036 19.0429L92.1829 10.5657H88.355L93.3717 23.3169Z" fill="#00315C"/>
<path d="M101.59 23.2224H105.442V19.4443H101.59V23.2224Z" fill="#00315C"/>
<path d="M112.768 23.4585C114.598 23.4585 115.668 22.4904 116.501 21.4278V23.2224H120.114V10.5657H116.501V17.6261C116.501 19.3262 115.621 20.1999 114.242 20.1999C112.863 20.1999 112.054 19.3262 112.054 17.6261V10.5657H108.44V18.7595C108.44 21.6639 110.033 23.4585 112.768 23.4585Z" fill="#00315C"/>
<path d="M122.921 23.2224H134.001V20.318H127.391L134.001 13.0923V10.5657H123.135V13.4701H129.507L122.921 20.6958V23.2224Z" fill="#00315C"/>
<path fill-rule="evenodd" clip-rule="evenodd" d="M17.0234 24.6549C17.8996 24.3975 18.7514 24.0348 19.5424 23.6135V19.3077V12.6735V8.6368C19.5424 7.96987 18.9826 7.43164 18.289 7.43164C17.5954 7.43164 17.0356 7.96987 17.0356 8.6368V9.42074V20.9224V24.6549H17.0234Z" fill="#0AA9B4"/>
<path fill-rule="evenodd" clip-rule="evenodd" d="M11.9975 25.1586C12.3869 25.1937 12.7885 25.2054 13.1901 25.2054C13.6403 25.2054 14.0784 25.182 14.5165 25.1352V12.1242C14.5165 11.4573 13.9567 10.919 13.2631 10.919C12.5694 10.919 12.0097 11.4573 12.0097 12.1242V25.1469L11.9975 25.1586Z" fill="#00315C"/>
<path fill-rule="evenodd" clip-rule="evenodd" d="M28.1695 25.6243C28.7257 25.0968 28.7257 24.2295 28.1695 23.6903L24.0411 19.7754C25.4749 17.7828 26.3031 15.3683 26.3031 12.7779C26.3031 5.89762 20.4195 0.306641 13.1515 0.306641C5.89594 0.306641 0 5.8859 0 12.7779C0 18.4275 3.95535 23.198 9.39395 24.7218V15.6496C9.39395 14.9815 8.82537 14.4423 8.12083 14.4423C7.41628 14.4423 6.8477 14.9815 6.8477 15.6496V19.4472C4.91947 17.8063 3.70814 15.4269 3.70814 12.7779C3.70814 7.83161 7.93542 3.82298 13.1639 3.82298C18.38 3.82298 22.6196 7.83161 22.6196 12.7779C22.6196 13.7273 22.459 14.6416 22.1747 15.4972V21.8618L26.1424 25.6243C26.6986 26.1517 27.6133 26.1517 28.1819 25.6243H28.1695Z" fill="#00315C"/>
<path d="M57.11 3.77116H57.8359C57.7981 4.11366 57.6986 4.42017 57.5373 4.69069C57.3759 4.96121 57.1478 5.17589 56.8529 5.33473C56.5581 5.49108 56.1901 5.56926 55.749 5.56926C55.4264 5.56926 55.1327 5.5097 54.8681 5.39057C54.606 5.27144 54.3804 5.10267 54.1913 4.88427C54.0023 4.66339 53.8561 4.39907 53.7528 4.09132C53.652 3.78109 53.6016 3.43612 53.6016 3.05639V2.51659C53.6016 2.13687 53.652 1.79313 53.7528 1.48538C53.8561 1.17515 54.0036 0.909596 54.1951 0.688712C54.3892 0.467828 54.6223 0.297821 54.8946 0.178693C55.1668 0.0595643 55.473 0 55.8133 0C56.2291 0 56.5807 0.0769372 56.8681 0.230812C57.1554 0.384686 57.3785 0.598125 57.5373 0.871128C57.6986 1.14165 57.7981 1.4556 57.8359 1.81299H57.11C57.0747 1.55984 57.0092 1.34268 56.9134 1.1615C56.8177 0.977847 56.6816 0.836382 56.5051 0.737108C56.3287 0.637834 56.0981 0.588197 55.8133 0.588197C55.5688 0.588197 55.3533 0.634112 55.1668 0.72594C54.9828 0.817768 54.8278 0.948065 54.7017 1.11683C54.5782 1.2856 54.485 1.48787 54.422 1.72364C54.359 1.95942 54.3275 2.22125 54.3275 2.50915V3.05639C54.3275 3.32195 54.3552 3.57138 54.4106 3.80467C54.4686 4.03796 54.5556 4.24272 54.6715 4.41893C54.7874 4.59514 54.9349 4.73412 55.1138 4.83588C55.2928 4.93515 55.5045 4.98479 55.749 4.98479C56.059 4.98479 56.306 4.93639 56.49 4.8396C56.674 4.74281 56.8126 4.60382 56.9059 4.42265C57.0017 4.24147 57.0697 4.02431 57.11 3.77116Z" fill="#0AA9B4"/>
<path d="M61.4503 1.46677V2.03635H59.3822V1.46677H61.4503ZM59.4843 1.46677V5.49481H58.7849V1.46677H59.4843ZM62.0703 1.46677V5.49481H61.3671V1.46677H62.0703Z" fill="#0AA9B4"/>
<path d="M63.8926 2.24111V7.04348H63.1894V1.46677H63.8321L63.8926 2.24111ZM66.6487 3.44728V3.52546C66.6487 3.81832 66.6134 4.09008 66.5428 4.34075C66.4723 4.58893 66.3689 4.80485 66.2328 4.98851C66.0992 5.17217 65.9342 5.31487 65.7376 5.41663C65.541 5.51838 65.3154 5.56926 65.0608 5.56926C64.8012 5.56926 64.5718 5.52707 64.3727 5.44269C64.1736 5.3583 64.0047 5.23545 63.8661 5.07413C63.7275 4.91281 63.6166 4.71923 63.5334 4.49338C63.4528 4.26753 63.3973 4.01314 63.3671 3.73021V3.31326C63.3973 3.01544 63.454 2.74864 63.5372 2.51287C63.6204 2.27709 63.73 2.07606 63.8661 1.90978C64.0047 1.74101 64.1724 1.6132 64.3689 1.52634C64.5655 1.43699 64.7924 1.39232 65.0495 1.39232C65.3066 1.39232 65.5347 1.44195 65.7338 1.54123C65.9329 1.63802 66.1005 1.777 66.2366 1.95818C66.3727 2.13935 66.4748 2.35651 66.5428 2.60966C66.6134 2.86033 66.6487 3.13953 66.6487 3.44728ZM65.9455 3.52546V3.44728C65.9455 3.24625 65.9241 3.05763 65.8812 2.88142C65.8384 2.70273 65.7716 2.54637 65.6808 2.41235C65.5926 2.27585 65.4792 2.16913 65.3406 2.0922C65.202 2.01278 65.0369 1.97307 64.8453 1.97307C64.6689 1.97307 64.5151 2.00285 64.3841 2.06241C64.2555 2.12198 64.1459 2.20264 64.0552 2.30439C63.9644 2.40367 63.8901 2.51783 63.8321 2.64689C63.7766 2.77346 63.7351 2.905 63.7073 3.0415V4.0057C63.7577 4.17943 63.8283 4.34323 63.919 4.4971C64.0098 4.6485 64.1308 4.77135 64.282 4.86566C64.4332 4.95749 64.6235 5.0034 64.8529 5.0034C65.0419 5.0034 65.2045 4.96493 65.3406 4.888C65.4792 4.80858 65.5926 4.70062 65.6808 4.56411C65.7716 4.42761 65.8384 4.27126 65.8812 4.09505C65.9241 3.91635 65.9455 3.72649 65.9455 3.52546Z" fill="#0AA9B4"/>
<path d="M69.953 4.80609V2.73251C69.953 2.57367 69.9202 2.43593 69.8547 2.31928C69.7917 2.20016 69.6959 2.10833 69.5674 2.0438C69.4388 1.97927 69.2801 1.94701 69.091 1.94701C68.9146 1.94701 68.7596 1.97679 68.626 2.03635C68.4949 2.09592 68.3916 2.1741 68.316 2.27089C68.2429 2.36768 68.2063 2.47192 68.2063 2.5836H67.5069C67.5069 2.43965 67.5447 2.29695 67.6203 2.15548C67.6959 2.01402 67.8043 1.8862 67.9455 1.77204C68.0891 1.65539 68.2605 1.56356 68.4596 1.49655C68.6613 1.42706 68.8856 1.39232 69.1326 1.39232C69.43 1.39232 69.6922 1.44195 69.919 1.54123C70.1484 1.6405 70.3273 1.79065 70.4558 1.99168C70.5869 2.19023 70.6524 2.43965 70.6524 2.73996V4.61623C70.6524 4.75025 70.6638 4.89296 70.6865 5.04435C70.7117 5.19574 70.7482 5.32604 70.7961 5.43524V5.49481H70.0664C70.0312 5.41539 70.0034 5.30991 69.9833 5.17837C69.9631 5.04435 69.953 4.92026 69.953 4.80609ZM70.074 3.05267L70.0816 3.53663H69.3746C69.1755 3.53663 68.9978 3.55276 68.8415 3.58503C68.6852 3.61481 68.5542 3.66072 68.4483 3.72277C68.3424 3.78481 68.2618 3.86299 68.2063 3.9573C68.1509 4.04913 68.1232 4.15709 68.1232 4.28118C68.1232 4.40776 68.1522 4.52316 68.2101 4.6274C68.2681 4.73164 68.355 4.81478 68.471 4.87683C68.5894 4.93639 68.7344 4.96617 68.9058 4.96617C69.12 4.96617 69.309 4.9215 69.4729 4.83215C69.6367 4.74281 69.7665 4.63361 69.8623 4.50455C69.9606 4.37549 70.0135 4.25016 70.0211 4.12855L70.3197 4.45988C70.3021 4.56411 70.2542 4.67952 70.1761 4.80609C70.0979 4.93267 69.9933 5.05428 69.8623 5.17093C69.7337 5.28509 69.58 5.38064 69.401 5.45758C69.2246 5.53203 69.0255 5.56926 68.8037 5.56926C68.5264 5.56926 68.2832 5.5159 68.074 5.40918C67.8673 5.30246 67.706 5.15976 67.5901 4.98106C67.4767 4.79989 67.42 4.59762 67.42 4.37425C67.42 4.15833 67.4628 3.96847 67.5485 3.80467C67.6342 3.63839 67.7577 3.50064 67.919 3.39144C68.0803 3.27976 68.2744 3.19538 68.5012 3.13829C68.7281 3.08121 68.9814 3.05267 69.2612 3.05267H70.074Z" fill="#0AA9B4"/>
<path d="M73.6732 3.72277H72.3311L72.3235 3.1718H73.4199C73.6367 3.1718 73.8169 3.1507 73.9605 3.10851C74.1067 3.06632 74.2164 3.00303 74.2895 2.91865C74.3626 2.83427 74.3991 2.73003 74.3991 2.60594C74.3991 2.50915 74.3777 2.42476 74.3348 2.35279C74.2945 2.27833 74.2327 2.21753 74.1496 2.17037C74.0664 2.12074 73.9631 2.08475 73.8396 2.06241C73.7186 2.0376 73.5762 2.02519 73.4123 2.02519H72.5163V5.49481H71.8169V1.46677H73.4123C73.6719 1.46677 73.9051 1.48911 74.1118 1.53378C74.321 1.57845 74.4987 1.6467 74.6448 1.73853C74.7936 1.82788 74.907 1.94204 74.9851 2.08103C75.0632 2.22001 75.1023 2.38381 75.1023 2.57243C75.1023 2.69404 75.0771 2.80945 75.0267 2.91865C74.9763 3.02785 74.9019 3.12464 74.8036 3.20903C74.7053 3.29341 74.5844 3.3629 74.4407 3.4175C74.297 3.46962 74.1319 3.50313 73.9454 3.51802L73.6732 3.72277ZM73.6732 5.49481H72.0778L72.4256 4.93639H73.6732C73.8673 4.93639 74.0286 4.91281 74.1571 4.86566C74.2857 4.81602 74.3815 4.74653 74.4445 4.65718C74.51 4.56536 74.5428 4.45615 74.5428 4.32958C74.5428 4.20301 74.51 4.09505 74.4445 4.0057C74.3815 3.91387 74.2857 3.84438 74.1571 3.79722C74.0286 3.74759 73.8673 3.72277 73.6732 3.72277H72.6108L72.6184 3.1718H73.9454L74.1987 3.38027C74.423 3.39765 74.6133 3.45225 74.7696 3.54408C74.9259 3.6359 75.0443 3.75255 75.125 3.89402C75.2056 4.033 75.246 4.18439 75.246 4.34819C75.246 4.53681 75.2094 4.7031 75.1363 4.84704C75.0658 4.99099 74.9624 5.11136 74.8263 5.20815C74.6902 5.30246 74.5251 5.37444 74.331 5.42407C74.137 5.47123 73.9177 5.49481 73.6732 5.49481Z" fill="#0AA9B4"/>
<path d="M75.9983 3.52546V3.43984C75.9983 3.14946 76.0412 2.88018 76.1269 2.632C76.2126 2.38133 76.3361 2.16417 76.4974 1.98051C76.6587 1.79437 76.854 1.65043 77.0834 1.54867C77.3127 1.44443 77.5698 1.39232 77.8546 1.39232C78.142 1.39232 78.4003 1.44443 78.6297 1.54867C78.8616 1.65043 79.0582 1.79437 79.2195 1.98051C79.3833 2.16417 79.5081 2.38133 79.5938 2.632C79.6795 2.88018 79.7223 3.14946 79.7223 3.43984V3.52546C79.7223 3.81584 79.6795 4.08512 79.5938 4.3333C79.5081 4.58149 79.3833 4.79865 79.2195 4.98479C79.0582 5.16844 78.8628 5.31239 78.6335 5.41663C78.4066 5.51838 78.1495 5.56926 77.8622 5.56926C77.5749 5.56926 77.3165 5.51838 77.0872 5.41663C76.8578 5.31239 76.6612 5.16844 76.4974 4.98479C76.3361 4.79865 76.2126 4.58149 76.1269 4.3333C76.0412 4.08512 75.9983 3.81584 75.9983 3.52546ZM76.6978 3.43984V3.52546C76.6978 3.72649 76.7217 3.91635 76.7696 4.09505C76.8175 4.27126 76.8893 4.42761 76.9851 4.56411C77.0834 4.70062 77.2056 4.80858 77.3518 4.888C77.498 4.96493 77.6681 5.0034 77.8622 5.0034C78.0538 5.0034 78.2214 4.96493 78.365 4.888C78.5112 4.80858 78.6322 4.70062 78.728 4.56411C78.8238 4.42761 78.8956 4.27126 78.9435 4.09505C78.9939 3.91635 79.0191 3.72649 79.0191 3.52546V3.43984C79.0191 3.24129 78.9939 3.05391 78.9435 2.8777C78.8956 2.69901 78.8225 2.54141 78.7242 2.40491C78.6284 2.26593 78.5074 2.15672 78.3613 2.0773C78.2176 1.99789 78.0487 1.95818 77.8546 1.95818C77.6631 1.95818 77.4942 1.99789 77.348 2.0773C77.2044 2.15672 77.0834 2.26593 76.9851 2.40491C76.8893 2.54141 76.8175 2.69901 76.7696 2.8777C76.7217 3.05391 76.6978 3.24129 76.6978 3.43984Z" fill="#0AA9B4"/>
<path d="M83.6845 1.46677V5.49481H82.985V1.46677H83.6845ZM83.4463 3.31699V3.88285C83.3051 3.93497 83.1615 3.98212 83.0153 4.02431C82.8716 4.06402 82.7191 4.09629 82.5578 4.1211C82.399 4.14344 82.2264 4.15461 82.0399 4.15461C81.7172 4.15461 81.4375 4.10001 81.2005 3.99081C80.9636 3.87912 80.7809 3.7116 80.6523 3.48823C80.5238 3.26239 80.4595 2.97821 80.4595 2.63572V1.45933H81.159V2.63572C81.159 2.85909 81.193 3.04026 81.261 3.17924C81.3291 3.31823 81.4286 3.42122 81.5597 3.48823C81.6908 3.55276 81.8508 3.58503 82.0399 3.58503C82.2213 3.58503 82.3915 3.57386 82.5503 3.55152C82.7116 3.5267 82.8653 3.49444 83.0115 3.45473C83.1602 3.41502 83.3051 3.36911 83.4463 3.31699Z" fill="#0AA9B4"/>
<path d="M87.5861 3.21275V3.77116H85.4236V3.21275H87.5861ZM85.571 1.46677V5.49481H84.8716V1.46677H85.571ZM88.1532 1.46677V5.49481H87.45V1.46677H88.1532Z" fill="#0AA9B4"/>
<path d="M90.036 4.40404L91.9226 1.46677H92.6258V5.49481H91.9226V2.55754L90.036 5.49481H89.3404V1.46677H90.036V4.40404Z" fill="#0AA9B4"/>
<path d="M94.5086 1.46677V5.49481H93.8091V1.46677H94.5086ZM97.1928 1.46677L95.2533 3.77489H94.2742L94.1683 3.1718H94.9698L96.3422 1.46677H97.1928ZM96.4405 5.49481L94.9358 3.67065L95.3857 3.1718L97.3289 5.49481H96.4405Z" fill="#0AA9B4"/>
<path d="M101.847 0.0744554V5.49481H101.129V0.0744554H101.847ZM103.616 0.0744554V0.662653H99.3629V0.0744554H103.616Z" fill="#0AA9B4"/>
<path d="M106.308 4.80609V2.73251C106.308 2.57367 106.275 2.43593 106.21 2.31928C106.147 2.20016 106.051 2.10833 105.922 2.0438C105.794 1.97927 105.635 1.94701 105.446 1.94701C105.27 1.94701 105.115 1.97679 104.981 2.03635C104.85 2.09592 104.747 2.1741 104.671 2.27089C104.598 2.36768 104.561 2.47192 104.561 2.5836H103.862C103.862 2.43965 103.9 2.29695 103.975 2.15548C104.051 2.01402 104.159 1.8862 104.301 1.77204C104.444 1.65539 104.616 1.56356 104.815 1.49655C105.016 1.42706 105.241 1.39232 105.488 1.39232C105.785 1.39232 106.047 1.44195 106.274 1.54123C106.503 1.6405 106.682 1.79065 106.811 1.99168C106.942 2.19023 107.007 2.43965 107.007 2.73996V4.61623C107.007 4.75025 107.019 4.89296 107.042 5.04435C107.067 5.19574 107.103 5.32604 107.151 5.43524V5.49481H106.421C106.386 5.41539 106.358 5.30991 106.338 5.17837C106.318 5.04435 106.308 4.92026 106.308 4.80609ZM106.429 3.05267L106.437 3.53663H105.73C105.531 3.53663 105.353 3.55276 105.197 3.58503C105.04 3.61481 104.909 3.66072 104.803 3.72277C104.697 3.78481 104.617 3.86299 104.561 3.9573C104.506 4.04913 104.478 4.15709 104.478 4.28118C104.478 4.40776 104.507 4.52316 104.565 4.6274C104.623 4.73164 104.71 4.81478 104.826 4.87683C104.944 4.93639 105.089 4.96617 105.261 4.96617C105.475 4.96617 105.664 4.9215 105.828 4.83215C105.992 4.74281 106.122 4.63361 106.217 4.50455C106.316 4.37549 106.369 4.25016 106.376 4.12855L106.675 4.45988C106.657 4.56411 106.609 4.67952 106.531 4.80609C106.453 4.93267 106.348 5.05428 106.217 5.17093C106.089 5.28509 105.935 5.38064 105.756 5.45758C105.58 5.53203 105.381 5.56926 105.159 5.56926C104.881 5.56926 104.638 5.5159 104.429 5.40918C104.222 5.30246 104.061 5.15976 103.945 4.98106C103.832 4.79989 103.775 4.59762 103.775 4.37425C103.775 4.15833 103.818 3.96847 103.904 3.80467C103.989 3.63839 104.113 3.50064 104.274 3.39144C104.435 3.27976 104.629 3.19538 104.856 3.13829C105.083 3.08121 105.336 3.05267 105.616 3.05267H106.429Z" fill="#0AA9B4"/>
<path d="M108.168 1.46677H108.868V4.92895H110.365V1.46677H111.068V4.92895H112.561V1.46677H113.261V5.49481H108.168V1.46677Z" fill="#0AA9B4"/>
<path d="M115.136 1.46677V5.49481H114.437V1.46677H115.136ZM117.82 1.46677L115.881 3.77489H114.902L114.796 3.1718H115.597L116.97 1.46677H117.82ZM117.068 5.49481L115.563 3.67065L116.013 3.1718L117.956 5.49481H117.068Z" fill="#0AA9B4"/>
<path d="M120.202 5.56926C119.917 5.56926 119.659 5.52211 119.427 5.4278C119.198 5.331 119 5.19574 118.833 5.02202C118.67 4.84829 118.544 4.64229 118.455 4.40404C118.367 4.16578 118.323 3.90518 118.323 3.62225V3.4659C118.323 3.13829 118.372 2.84668 118.471 2.59105C118.569 2.33294 118.702 2.11453 118.871 1.93584C119.04 1.75715 119.232 1.62189 119.446 1.53006C119.66 1.43823 119.882 1.39232 120.111 1.39232C120.404 1.39232 120.656 1.44195 120.867 1.54123C121.082 1.6405 121.257 1.77948 121.393 1.95818C121.529 2.13439 121.63 2.34286 121.695 2.5836C121.761 2.82186 121.794 3.08245 121.794 3.36538V3.67437H118.739V3.11223H121.094V3.06012C121.084 2.88142 121.046 2.70769 120.981 2.53893C120.918 2.37016 120.817 2.23118 120.678 2.12198C120.54 2.01278 120.351 1.95818 120.111 1.95818C119.953 1.95818 119.806 1.99168 119.673 2.05869C119.539 2.12322 119.425 2.22001 119.329 2.34907C119.233 2.47812 119.159 2.63572 119.106 2.82186C119.053 3.008 119.026 3.22268 119.026 3.4659V3.62225C119.026 3.81336 119.053 3.99329 119.106 4.16206C119.161 4.32834 119.241 4.47477 119.344 4.60134C119.45 4.72792 119.577 4.82719 119.726 4.89916C119.877 4.97114 120.048 5.00712 120.24 5.00712C120.487 5.00712 120.696 4.95749 120.867 4.85821C121.039 4.75894 121.189 4.62616 121.317 4.45988L121.741 4.7912C121.653 4.92274 121.54 5.04807 121.404 5.1672C121.268 5.28633 121.101 5.38312 120.902 5.45758C120.705 5.53203 120.472 5.56926 120.202 5.56926Z" fill="#0AA9B4"/>
<path d="M125.385 3.21275V3.77116H123.223V3.21275H125.385ZM123.37 1.46677V5.49481H122.671V1.46677H123.37ZM125.952 1.46677V5.49481H125.249V1.46677H125.952Z" fill="#0AA9B4"/>
<path d="M128.746 1.46677V5.49481H128.043V1.46677H128.746ZM130.119 1.46677V2.02519H126.697V1.46677H130.119Z" fill="#0AA9B4"/>
<path d="M133.158 4.80609V2.73251C133.158 2.57367 133.126 2.43593 133.06 2.31928C132.997 2.20016 132.901 2.10833 132.773 2.0438C132.644 1.97927 132.486 1.94701 132.296 1.94701C132.12 1.94701 131.965 1.97679 131.831 2.03635C131.7 2.09592 131.597 2.1741 131.521 2.27089C131.448 2.36768 131.412 2.47192 131.412 2.5836H130.712C130.712 2.43965 130.75 2.29695 130.826 2.15548C130.901 2.01402 131.01 1.8862 131.151 1.77204C131.295 1.65539 131.466 1.56356 131.665 1.49655C131.867 1.42706 132.091 1.39232 132.338 1.39232C132.635 1.39232 132.898 1.44195 133.124 1.54123C133.354 1.6405 133.533 1.79065 133.661 1.99168C133.792 2.19023 133.858 2.43965 133.858 2.73996V4.61623C133.858 4.75025 133.869 4.89296 133.892 5.04435C133.917 5.19574 133.954 5.32604 134.002 5.43524V5.49481H133.272C133.237 5.41539 133.209 5.30991 133.189 5.17837C133.169 5.04435 133.158 4.92026 133.158 4.80609ZM133.279 3.05267L133.287 3.53663H132.58C132.381 3.53663 132.203 3.55276 132.047 3.58503C131.891 3.61481 131.76 3.66072 131.654 3.72277C131.548 3.78481 131.467 3.86299 131.412 3.9573C131.356 4.04913 131.329 4.15709 131.329 4.28118C131.329 4.40776 131.358 4.52316 131.416 4.6274C131.474 4.73164 131.561 4.81478 131.676 4.87683C131.795 4.93639 131.94 4.96617 132.111 4.96617C132.325 4.96617 132.514 4.9215 132.678 4.83215C132.842 4.74281 132.972 4.63361 133.068 4.50455C133.166 4.37549 133.219 4.25016 133.227 4.12855L133.525 4.45988C133.508 4.56411 133.46 4.67952 133.382 4.80609C133.303 4.93267 133.199 5.05428 133.068 5.17093C132.939 5.28509 132.785 5.38064 132.606 5.45758C132.43 5.53203 132.231 5.56926 132.009 5.56926C131.732 5.56926 131.489 5.5159 131.279 5.40918C131.073 5.30246 130.911 5.15976 130.796 4.98106C130.682 4.79989 130.625 4.59762 130.625 4.37425C130.625 4.15833 130.668 3.96847 130.754 3.80467C130.84 3.63839 130.963 3.50064 131.124 3.39144C131.286 3.27976 131.48 3.19538 131.707 3.13829C131.934 3.08121 132.187 3.05267 132.467 3.05267H133.279Z" fill="#0AA9B4"/>
</svg>
