<svg width="102" height="72" viewBox="0 0 102 72" fill="none" xmlns="http://www.w3.org/2000/svg">
<rect x="0.5" y="0.5" width="101" height="71" rx="5.5" fill="white" stroke="#E9E9EA"/>
<path d="M57 36C57 39.3137 54.3137 42 51 42C47.6863 42 45 39.3137 45 36C45 32.6863 47.6863 30 51 30C54.3137 30 57 32.6863 57 36Z" fill="white"/>
<path fill-rule="evenodd" clip-rule="evenodd" d="M51 40.8C53.651 40.8 55.8 38.651 55.8 36C55.8 33.349 53.651 31.2 51 31.2C48.349 31.2 46.2 33.349 46.2 36C46.2 38.651 48.349 40.8 51 40.8ZM51 42C54.3137 42 57 39.3137 57 36C57 32.6863 54.3137 30 51 30C47.6863 30 45 32.6863 45 36C45 39.3137 47.6863 42 51 42Z" fill="#E9E9EA"/>
<path d="M36 24H45V25.2H36C35.0059 25.2 34.2 26.0059 34.2 27V33H33V27C33 25.3431 34.3431 24 36 24Z" fill="#E9E9EA"/>
<path d="M33 39V45C33 46.6569 34.3431 48 36 48H45V46.8H36C35.0059 46.8 34.2 45.9941 34.2 45V39H33Z" fill="#E9E9EA"/>
<path d="M67.8 39V45C67.8 45.9941 66.9941 46.8 66 46.8H57V48H66C67.6569 48 69 46.6569 69 45V39H67.8Z" fill="#E9E9EA"/>
<path d="M69 33V27C69 25.3431 67.6569 24 66 24H57V25.2H66C66.9941 25.2 67.8 26.0059 67.8 27V33H69Z" fill="#E9E9EA"/>
</svg>
